#!OML:ASF E:\Style4\Style4.ASF
:FULLY-SPECIFIED
:DEGREES
3634
root -0.00774905 17.3866 -1.15772 4.32116 1.48106 2.9464
lowerback 16.1698 4.89192 -0.851169
upperback 9.25668 6.28459 -0.855692
thorax 0.836922 3.14422 -1.36024
lowerneck 3.93252 -5.48047 -4.94515
upperneck -3.75777 -7.28281 7.89027
head -1.38268 -3.74804 3.58025
rclavicle -4.6118e-014 3.4191e-014
rhumerus 1.61428 13.3649 -80.6322
rradius 122.288
rwrist 23.8228
rhand 23.1942 -5.062
rfingers 7.12502
rthumb 47.4982 -27.5056
lclavicle -4.6118e-014 3.4191e-014
lhumerus -10.1915 -34.3403 84.6014
lradius 120.627
lwrist -15.9071
lhand 24.0453 40.7513
lfingers 7.12502
lthumb 48.2832 62.8309
rfemur -26.4101 -3.3788 16.1036
rtibia 45.3894
rfoot -20.715 -17.7735
rtoes -12.1877
lfemur -25.0751 0.320264 -21.0453
ltibia 41.6464
lfoot -20.338 8.45231
ltoes -16.9846
3635
root -0.024484 17.4005 -1.15549 4.52233 1.95791 2.98302
lowerback 16.1671 5.13133 -0.660457
upperback 9.14102 6.62439 -0.834434
thorax 0.73974 3.32153 -1.4998
lowerneck 3.95712 -5.65486 -5.01104
upperneck -3.7414 -7.51863 7.96767
head -1.35956 -3.86687 3.62072
rclavicle -5.84427e-014 5.00937e-014
rhumerus 1.21579 12.9251 -80.5902
rradius 121.901
rwrist 23.7971
rhand 22.9427 -5.1865
rfingers 7.12502
rthumb 47.2659 -27.7347
lclavicle -5.84427e-014 5.00937e-014
lhumerus -9.5078 -34.9246 83.9625
lradius 121.025
lwrist -15.4696
lhand 24.2288 41.1897
lfingers 7.12502
lthumb 48.4521 63.1888
rfemur -26.428 -3.5906 16.1434
rtibia 45.2245
rfoot -20.7742 -17.8495
rtoes -11.32
lfemur -25.1916 0.00667499 -21.0143
ltibia 41.3529
lfoot -20.1163 8.36411
ltoes -16.9091
3636
root -0.0411074 17.4065 -1.1532 4.74648 2.41058 3.02085
lowerback 16.1167 5.35059 -0.527312
upperback 9.04452 6.9315 -0.809232
thorax 0.682044 3.47995 -1.59314
lowerneck 3.87207 -5.82276 -4.9186
upperneck -3.6942 -7.74109 7.86752
head -1.31994 -3.97528 3.56467
rclavicle -5.28767e-014 3.18055e-015
rhumerus 0.818854 12.5266 -80.568
rradius 121.544
rwrist 23.7529
rhand 22.5795 -5.5226
rfingers 7.12502
rthumb 46.9301 -28.2195
lclavicle -5.28767e-014 3.18055e-015
lhumerus -8.74104 -35.3401 83.2574
lradius 121.495
lwrist -15.0008
lhand 24.3207 41.5775
lfingers 7.12502
lthumb 48.5368 63.5359
rfemur -26.5524 -3.75184 16.1749
rtibia 45.1476
rfoot -20.6593 -18.1778
rtoes -11.75
lfemur -25.4106 -0.249244 -20.9891
ltibia 41.1875
lfoot -19.9453 8.30633
ltoes -17.2576
3637
root -0.0581746 17.4064 -1.15275 4.93182 2.85194 3.06441
lowerback 16.1068 5.54894 -0.335985
upperback 8.97953 7.21806 -0.838128
thorax 0.652523 3.63193 -1.77265
lowerneck 3.79497 -6.00665 -4.88195
upperneck -3.66964 -7.9823 7.91462
head -1.28038 -4.09585 3.57026
rclavicle 1.07344e-014 1.51076e-014
rhumerus 0.35367 12.0376 -80.6998
rradius 121.21
rwrist 23.8514
rhand 22.2991 -5.22908
rfingers 7.12502
rthumb 46.6705 -28.0391
lclavicle 1.07344e-014 1.51076e-014
lhumerus -8.40756 -35.5023 82.5757
lradius 122.019
lwrist -14.6044
lhand 24.5975 41.0928
lfingers 7.12502
lthumb 48.7914 62.9277
rfemur -26.7202 -3.79654 16.1746
rtibia 45.182
rfoot -20.7753 -18.4721
rtoes -11.5188
lfemur -25.6428 -0.484406 -20.9651
ltibia 41.1194
lfoot -19.8661 8.15518
ltoes -17.1791
3638
root -0.0745842 17.4056 -1.15335 5.03897 3.3172 3.04317
lowerback 16.0808 5.72418 -0.0041386
upperback 8.98849 7.49488 -0.873406
thorax 0.731512 3.78588 -2.02609
lowerneck 3.73644 -6.20673 -4.92188
upperneck -3.67176 -8.24454 8.08946
head -1.24296 -4.22916 3.63505
rclavicle -5.52621e-014 3.81667e-014
rhumerus 0.00876802 11.536 -80.8081
rradius 120.834
rwrist 23.9885
rhand 22.1097 -4.98041
rfingers 7.12502
rthumb 46.4951 -27.8659
lclavicle -5.52621e-014 3.81667e-014
lhumerus -7.88164 -35.682 81.7564
lradius 122.594
lwrist -14.1598
lhand 24.8815 40.799
lfingers 7.12502
lthumb 49.0523 62.5055
rfemur -26.8558 -3.92367 16.2577
rtibia 45.3536
rfoot -20.9315 -18.5816
rtoes -10.8959
lfemur -25.8424 -0.733548 -20.8702
ltibia 41.1332
lfoot -19.7494 7.93705
ltoes -16.8599
3639
root -0.0888535 17.4018 -1.14978 5.12281 3.7587 3.18935
lowerback 15.9348 5.8872 0.0277636
upperback 9.07003 7.71902 -0.862043
thorax 0.905514 3.9025 -2.04191
lowerneck 3.60972 -6.32503 -5.04424
upperneck -3.60958 -8.4037 8.2354
head -1.17727 -4.30737 3.69915
rclavicle -7.07673e-014 2.38542e-014
rhumerus -0.0177737 11.2506 -80.6699
rradius 120.338
rwrist 24.0757
rhand 21.9614 -4.92674
rfingers 7.12502
rthumb 46.3577 -27.8708
lclavicle -7.07673e-014 2.38542e-014
lhumerus -7.06489 -35.7448 80.8953
lradius 123.21
lwrist -13.6142
lhand 24.7949 41.0355
lfingers 7.12502
lthumb 48.9728 62.7813
rfemur -26.9859 -4.20535 16.166
rtibia 45.6628
rfoot -21.0479 -18.5378
rtoes -10.6353
lfemur -26.0134 -0.982839 -20.9877
ltibia 41.2285
lfoot -19.6226 7.86519
ltoes -17.1946
3640
root -0.0983638 17.3876 -1.14328 5.16626 4.07894 3.54708
lowerback 15.8002 6.09527 -0.200412
upperback 9.18376 7.96803 -0.846322
thorax 1.07357 4.02132 -1.91417
lowerneck 3.36735 -6.42208 -5.3006
upperneck -3.38981 -8.54453 8.39216
head -1.03457 -4.37131 3.78047
rclavicle -8.54774e-014 1.03368e-014
rhumerus -0.134649 10.9767 -80.5084
rradius 119.924
rwrist 24.1687
rhand 22.081 -4.74369
rfingers 7.12502
rthumb 46.4685 -27.6405
lclavicle -8.54774e-014 1.03368e-014
lhumerus -6.14351 -35.6821 80.1332
lradius 123.828
lwrist -13.1887
lhand 24.7352 41.1063
lfingers 7.12502
lthumb 48.9179 62.8792
rfemur -27.1341 -4.50837 15.8079
rtibia 46.0716
rfoot -21.3324 -18.4226
rtoes -10.2538
lfemur -26.1397 -1.21294 -21.3643
ltibia 41.424
lfoot -19.6783 7.78352
ltoes -17.0281
3641
root -0.108036 17.3659 -1.14054 5.1628 4.43572 3.69517
lowerback 15.854 6.29397 -0.136706
upperback 9.21629 8.2383 -0.805727
thorax 1.0928 4.15973 -1.94809
lowerneck 3.2281 -6.57769 -5.55191
upperneck -3.19633 -8.76542 8.53699
head -0.912565 -4.47721 3.86235
rclavicle -3.73715e-014 1.03368e-014
rhumerus -0.514438 10.5894 -80.4389
rradius 119.671
rwrist 24.4234
rhand 22.3042 -4.79905
rfingers 7.12502
rthumb 46.6752 -27.607
lclavicle -3.73715e-014 1.03368e-014
lhumerus -5.22386 -35.766 79.4192
lradius 124.458
lwrist -12.8995
lhand 24.8134 41.0756
lfingers 7.12502
lthumb 48.9898 62.8131
rfemur -27.3102 -4.73061 15.6719
rtibia 46.5374
rfoot -21.6082 -18.6209
rtoes -10.6991
lfemur -26.3342 -1.40632 -21.4995
ltibia 41.7437
lfoot -19.7806 7.68718
ltoes -17.1253
3642
root -0.117767 17.3407 -1.14122 5.12833 4.8539 3.69067
lowerback 16.0108 6.44107 0.141873
upperback 9.20339 8.46709 -0.764461
thorax 1.03981 4.285 -2.10659
lowerneck 3.23431 -6.76076 -5.69925
upperneck -3.12967 -9.01953 8.59254
head -0.862772 -4.60316 3.90514
rclavicle 2.22639e-014 -3.65764e-014
rhumerus -0.974129 10.1803 -80.4563
rradius 119.481
rwrist 24.7386
rhand 22.3363 -4.94598
rfingers 7.12502
rthumb 46.705 -27.7411
lclavicle 2.22639e-014 -3.65764e-014
lhumerus -4.23892 -35.9162 78.5917
lradius 125.106
lwrist -12.6351
lhand 24.765 41.0808
lfingers 7.12502
lthumb 48.9453 62.8402
rfemur -27.4642 -4.96966 15.7193
rtibia 47.0274
rfoot -21.9503 -18.8777
rtoes -11.1876
lfemur -26.6196 -1.60213 -21.4576
ltibia 42.2038
lfoot -19.8829 7.57997
ltoes -17.2173
